<?xml version="1.0" encoding="UTF-8"?>
<svg width="16px" height="18px" viewBox="0 0 16 18" version="1.1" xmlns="http://www.w3.org/2000/svg" xmlns:xlink="http://www.w3.org/1999/xlink">
    <!-- Generator: Sketch 51.1 (57501) - http://www.bohemiancoding.com/sketch -->
    <title>Fill 1</title>
    <desc>Created with Sketch.</desc>
    <defs></defs>
    <g id="Page-1" stroke="none" stroke-width="1" fill="none" fill-rule="evenodd" fill-opacity="0.5">
        <g id="ログイン画面" transform="translate(-53.000000, -428.000000)" fill="#9B9B9B">
            <path d="M63.634795,434.032602 L58.3652742,434.032602 L58.3652742,432.718637 C58.3658281,431.977051 58.6584543,431.314567 59.1371523,430.826774 C59.6169235,430.341196 60.2692655,430.043457 61.0000173,430.043457 C61.7307691,430.043457 62.3831112,430.341196 62.8628823,430.826774 C63.3415804,431.314567 63.6342065,431.977051 63.634795,432.718637 L63.634795,434.032602 Z M61.589043,440.65625 L61.9098136,442.76893 L61.0000173,442.76893 L60.0901864,442.76893 L60.4104031,440.65625 C59.9047031,440.426645 59.5509415,439.913574 59.5509415,439.314828 C59.5509415,438.50184 60.1994755,437.84266 61.0000173,437.84266 C61.8000052,437.84266 62.4490931,438.50184 62.4490931,439.314828 C62.4490931,439.913574 62.0948123,440.426645 61.589043,440.65625 Z M65.646933,434.032602 L65.646933,432.718637 C65.6474868,431.418946 65.1249624,430.232422 64.2854754,429.382098 C63.4481346,428.529559 62.2797764,427.999438 61.0000173,428 C59.7202236,427.999438 58.5518654,428.529559 57.7145246,429.382098 C56.8750376,430.232457 56.3525478,431.418981 56.3536209,432.718637 L56.3536209,434.032602 L53,434.032602 L53,446 L69,446 L69,444.978254 L69,434.032602 L65.646933,434.032602 Z" id="Fill-1"></path>
        </g>
    </g>
</svg>