<?xml version="1.0" encoding="UTF-8"?>
<svg width="222px" height="41px" viewBox="0 0 222 41" version="1.1" xmlns="http://www.w3.org/2000/svg" xmlns:xlink="http://www.w3.org/1999/xlink">
    <!-- Generator: Sketch 51.1 (57501) - http://www.bohemiancoding.com/sketch -->
    <title>logo</title>
    <desc>Created with Sketch.</desc>
    <defs></defs>
    <g id="logo" stroke="none" stroke-width="1" fill="none" fill-rule="evenodd">
        <g fill="#FEFEFE">
            <path d="M77.5297477,3.21717073 C64.6546075,0.178146341 50.6774112,0.111804878 37.664514,2.28839024 C27.9649813,3.90985366 18.0886262,7.34790244 10.7361028,14.0981463 C8.37881308,16.2630244 6.43479439,18.7176585 4.88759813,21.3761951 L4.88759813,3.33912195 C4.88759813,0.199609756 0.000308411215,0.194731707 0.000308411215,3.33912195 L0.000308411215,37.6444878 C0.000308411215,39.3157073 1.3861028,40.0893659 2.68142991,39.9810732 C3.97470093,40.0874146 5.36666355,39.3147317 5.3872243,37.6444878 C5.72442056,12.0561951 34.7078785,5.77814634 55.3272243,5.77814634 C76.1316168,5.77814634 103.973953,12.1313171 104.288533,37.6444878 C104.327598,40.7810732 109.214888,40.7898537 109.175822,37.6444878 C108.945542,18.9313171 94.8069439,7.29521951 77.5297477,3.21717073" id="Fill-1"></path>
            <path d="M143.852299,37.5616585 C156.727439,40.6006829 170.703607,40.6670244 183.716505,38.4914146 C193.416037,36.8689756 203.293421,33.4309268 210.644916,26.6806829 C213.002206,24.5158049 214.947252,22.0621463 216.493421,19.4026341 L216.493421,37.4406829 C216.493421,40.5792195 221.381738,40.5840976 221.381738,37.4406829 L221.381738,3.13434146 C221.381738,1.46312195 219.994916,0.689463415 218.699589,0.797756098 C217.406318,0.691414634 216.015383,1.46409756 215.993794,3.13434146 C215.656598,28.7226341 186.674168,35.0016585 166.054822,35.0016585 C145.25043,35.0006829 117.407065,28.6475122 117.092486,3.13434146 C117.053421,-0.00126829268 112.166131,-0.0100487805 112.205196,3.13434146 C112.435477,21.8475122 126.574075,33.4836098 143.852299,37.5616585" id="Fill-4"></path>
        </g>
    </g>
</svg>