<?xml version="1.0" encoding="UTF-8"?>
<svg width="24px" height="24px" viewBox="0 0 24 24" version="1.1" xmlns="http://www.w3.org/2000/svg" xmlns:xlink="http://www.w3.org/1999/xlink">
    <!-- Generator: Sketch 51.1 (57501) - http://www.bohemiancoding.com/sketch -->
    <title>機能</title>
    <desc>Created with Sketch.</desc>
    <defs></defs>
    <g id="機能" stroke="none" stroke-width="1" fill="none" fill-rule="evenodd">
        <path d="M12,8.85275616 C11.157935,8.85275616 10.3672658,9.1799392 9.77437859,9.77373282 C9.17965583,10.3684442 8.85246654,11.1586394 8.85246654,11.9993117 C8.85246654,12.8395251 9.17965583,13.6301792 9.77437859,14.2253494 C10.3681836,14.819143 11.1588528,15.1463261 12,15.1463261 C12.8397706,15.1463261 13.6304398,14.819143 14.2256214,14.2253494 C14.8198853,13.6301792 15.1466157,12.8395251 15.1466157,11.9993117 C15.1466157,11.1586394 14.8198853,10.3684442 14.2256214,9.7741917 C13.6318164,9.1799392 12.8416061,8.85275616 12,8.85275616 Z M12,16.5229728 C10.7912811,16.5229728 9.65552581,16.0526185 8.80061185,15.1990975 C7.94615679,14.3428233 7.4757935,13.2066308 7.4757935,11.9993117 C7.4757935,10.7910747 7.94615679,9.6553412 8.80061185,8.80090247 C9.65323136,7.94646374 10.7894455,7.47610944 12,7.47610944 C13.2096367,7.47610944 14.3458509,7.94646374 15.1993881,8.80090247 C16.0529254,9.65488232 16.5232887,10.7910747 16.5232887,11.9993117 C16.5232887,13.2070897 16.0533843,14.3428233 15.1993881,15.1986386 L15.1984704,15.1990975 C14.3430975,16.0526185 13.2073423,16.5229728 12,16.5229728 Z M14.3862333,3.50173037 L14.3880688,3.50264813 C14.3876099,3.50218925 14.3871511,3.50218925 14.3862333,3.50173037 Z M9.61101338,3.50264813 C9.61055449,3.50310702 9.60963671,3.50310702 9.60917782,3.5035659 L9.61101338,3.50264813 Z M14.551434,3.67518785 L14.5537285,3.69308426 C14.5532696,3.68757768 14.5523518,3.68115332 14.551434,3.67518785 Z M16.3172467,4.30247988 L16.3181644,4.30247988 C16.3181644,4.30247988 16.3177055,4.30247988 16.3172467,4.30247988 Z M19.6965201,7.67893539 L19.6974379,7.68031204 C19.696979,7.67985316 19.696979,7.67939428 19.6965201,7.67893539 Z M4.30256214,7.68077092 C4.30210325,7.68168869 4.30210325,7.68214757 4.30164436,7.68306533 L4.30256214,7.68077092 Z M3.69315488,9.44471425 C3.68810707,9.44517313 3.68214149,9.44563201 3.67571702,9.44700866 L3.69315488,9.44471425 Z M3.50271511,9.61037074 C3.50179732,9.6112885 3.50133843,9.61266515 3.50087954,9.61358291 L3.50271511,9.61037074 Z M3.50271511,14.3887115 C3.503174,14.3896293 3.50363289,14.390547 3.50409178,14.3914648 L3.50271511,14.3887115 Z M20.3238241,14.5511558 L20.307304,14.5534502 C20.3123518,14.5534502 20.3178585,14.5525325 20.3238241,14.5511558 Z M3.7018738,14.5534502 C3.71288719,14.5557446 3.72481836,14.5575802 3.73629063,14.5584979 L3.7018738,14.5534502 Z M19.6978967,16.3169347 L19.6974379,16.3173935 C19.6974379,16.3173935 19.6974379,16.3169347 19.6978967,16.3169347 Z M4.30256214,16.3178524 C4.30302103,16.3178524 4.30302103,16.3183113 4.30302103,16.3187702 L4.30256214,16.3178524 Z M7.96405354,19.6539263 L7.93789675,19.6731994 C7.94707457,19.6672339 7.9557935,19.6608095 7.96405354,19.6539263 Z M16.0671511,19.6791648 C16.0712811,19.6832948 16.0763289,19.6869658 16.0822945,19.690178 L16.0671511,19.6791648 Z M16.3222945,19.6952257 L16.3190822,19.6966024 C16.32,19.6961435 16.3213767,19.6956846 16.3222945,19.6952257 Z M7.68137667,19.6970612 C7.68229446,19.6975201 7.68321224,19.697979 7.68413002,19.697979 L7.68137667,19.6970612 Z M14.5587763,20.2633219 L14.5537285,20.2977381 C14.5560229,20.2867249 14.5578585,20.2752529 14.5587763,20.2633219 Z M9.44581262,20.3064569 C9.44627151,20.3124223 9.44718929,20.3183878 9.44810707,20.3248121 L9.44581262,20.3064569 Z M7.77820268,18.3392287 C7.92275335,18.3392287 8.07051625,18.3672205 8.2109369,18.4264163 L10.1373614,19.2234948 C10.5232887,19.3854802 10.7807266,19.7415728 10.8128489,20.1536491 L11.1735373,22.6233533 L12.8273805,22.6004092 L12.833805,22.573794 L13.19174,20.1086786 C13.2201912,19.7397373 13.478088,19.3845624 13.8598853,19.2248714 L15.7922753,18.4250397 C16.1713193,18.2658075 16.6077247,18.3328043 16.9243595,18.6035449 L18.9081453,20.0793101 L20.0796941,18.9123726 L20.0512428,18.8710732 L18.5864627,16.9029273 C18.3317782,16.588593 18.2698279,16.1650446 18.4263098,15.7892201 L19.225239,13.8619147 C19.3840153,13.478748 19.7391969,13.2199384 20.1526577,13.18644 L22.6214914,12.828053 L22.623327,11.1747003 L22.5742256,11.1650638 L20.1260421,10.8089711 C19.7240535,10.7676717 19.3803442,10.5120743 19.2247801,10.1357909 L18.4258509,8.20802662 C18.2689101,7.83220206 18.3313193,7.40819487 18.5873805,7.0947783 L20.0512428,5.12892679 L20.715717,4.82285234 L20.080153,5.08716851 L18.9122753,3.92023097 L18.8709751,3.94868167 L16.9041683,5.41205713 C16.5902868,5.6685723 16.1653537,5.7305214 15.7904398,5.57404256 L13.8617208,4.7746697 C13.4790057,4.61773197 13.2192734,4.26163936 13.1866922,3.84635093 L12.8260038,1.37664672 L11.1744551,1.37664672 L11.1657361,1.426206 L10.8096367,3.87204834 C10.7692543,4.27632359 10.513652,4.62048527 10.1359847,4.77558746 L8.20772467,5.57450144 C7.83372849,5.73006252 7.40971319,5.66765454 7.09537285,5.41251601 L5.09139579,3.91931321 L3.92030593,5.08670962 L3.94875717,5.12892679 L5.41216061,7.09569607 C5.66868069,7.41048928 5.73063098,7.83495535 5.57277247,8.21077991 L4.77476099,10.1367087 C4.61965583,10.5175809 4.26447419,10.7777672 3.84826004,10.8121833 L1.3785086,11.1701115 L1.37667304,12.8243819 L1.4248566,12.8331007 L3.89139579,13.1914877 C4.2640153,13.2203973 4.61919694,13.4805835 4.77613767,13.8651269 L5.57414914,15.7905967 C5.73063098,16.1659624 5.66776291,16.5895107 5.41216061,16.9033862 L3.92030593,18.906866 L5.08726577,20.0793101 L5.12856597,20.0499417 L7.11005736,18.5750942 C7.28994264,18.4222864 7.52994264,18.3392287 7.77820268,18.3392287 Z M12.8255449,24 L11.1744551,24 C10.459044,24 9.85468451,23.4406226 9.79869981,22.7261429 L9.46462715,20.4349439 L7.82546845,19.7571748 L5.96695985,21.1425403 C5.423174,21.5904094 4.61460803,21.5532399 4.11349904,21.0530583 L2.9465392,19.8861207 C2.44772467,19.3854802 2.4100956,18.5773886 2.85567878,18.0336131 L4.24152964,16.1705512 L3.56282983,14.5332594 L1.24634799,14.1982754 C0.545162524,14.1312786 0,13.533355 0,12.8243819 L0,11.1747003 C0,10.458844 0.558470363,9.85403721 1.271587,9.79805357 L3.56328872,9.46352842 L4.24152964,7.828531 L2.85567878,5.96592799 C2.40963671,5.42169366 2.44726577,4.61314315 2.9465392,4.11342039 L4.11349904,2.94648286 C4.61369025,2.4467601 5.42271511,2.40821399 5.96650096,2.85608306 L7.82776291,4.24190742 L9.46370937,3.56413835 L9.80053537,1.24724193 C9.86845124,0.5451521 10.4668451,0 11.1744551,0 L12.8255449,0 C13.540956,0 14.1457744,0.55937745 14.2013002,1.27339821 L14.534914,3.56367947 L16.1708604,4.24144854 L18.0330402,2.85608306 C18.5772849,2.40775511 19.3858509,2.44538345 19.8869598,2.94740062 L21.0534608,4.11342039 C21.5586998,4.61864974 21.5908222,5.44142559 21.1273423,5.98611881 L19.7580115,7.82715436 L20.4362524,9.46306954 L22.753652,9.7998891 C23.4548375,9.86872144 24,10.4675628 24,11.1747003 L24,12.8243819 C24,13.533355 23.4543786,14.1312786 22.7527342,14.1982754 L20.4367113,14.534636 L19.7580115,16.171469 L21.1443212,18.0336131 C21.5899044,18.5773886 21.5527342,19.3859391 21.0534608,19.8856618 L19.8860421,21.0530583 C19.3867686,21.5532399 18.5777438,21.5904094 18.0330402,21.1425403 L16.1722371,19.7576337 L14.5335373,20.4354028 L14.1962524,22.7715722 C14.1453155,23.4406226 13.540956,24 12.8255449,24 Z" id="Fill-1" fill="#9B9B9B"></path>
    </g>
</svg>