<?xml version="1.0" encoding="UTF-8"?>
<svg width="25px" height="25px" viewBox="0 0 25 25" version="1.1" xmlns="http://www.w3.org/2000/svg" xmlns:xlink="http://www.w3.org/1999/xlink">
    <!-- Generator: Sketch 51.1 (57501) - http://www.bohemiancoding.com/sketch -->
    <title>insta_select</title>
    <desc>Created with Sketch.</desc>
    <defs></defs>
    <g id="insta_select" stroke="none" stroke-width="1" fill="none" fill-rule="evenodd">
        <g id="insta" transform="translate(2.000000, 2.000000)" stroke="#B5B5D5">
            <path d="M6.17140919,0.0629009014 C5.05343468,0.113933708 4.2903162,0.291361723 3.62214247,0.551272994 C2.93201277,0.819491933 2.3463223,1.17850179 1.76241205,1.76241205 C1.1790952,2.3457289 0.820085337,2.93141937 0.551272994,3.62214247 C0.291955127,4.2897228 0.114527113,5.05343468 0.0634943061,6.17022239 C0.0124614993,7.29057052 0,7.64839357 0,10.4997033 C0,13.3516064 0.0124614993,13.7094295 0.0634943061,14.8291842 C0.114527113,15.9465653 0.291955127,16.7096838 0.551272994,17.3778575 C0.820085337,18.0679872 1.1790952,18.6542711 1.76241205,19.237588 C2.3463223,19.8209048 2.93201277,20.1805081 3.62214247,20.448727 C4.2903162,20.7080449 5.05343468,20.8854729 6.17140919,20.9365057 C7.29116392,20.9875385 7.64839357,21 10.5002967,21 C13.3521998,21 13.7094295,20.9875385 14.8291842,20.9365057 C15.9471587,20.8854729 16.7102772,20.7080449 17.3778575,20.448727 C18.0685806,20.1805081 18.6542711,19.8209048 19.2381814,19.237588 C19.8214982,18.6542711 20.1805081,18.0679872 20.4493204,17.3778575 C20.7086383,16.7096838 20.8860663,15.9465653 20.9370991,14.8291842 C20.9881319,13.7094295 21,13.3516064 21,10.4997033 C21,7.64839357 20.9881319,7.29057052 20.9370991,6.17022239 C20.8860663,5.05343468 20.7086383,4.2897228 20.4493204,3.62214247 C20.1805081,2.93141937 19.8214982,2.3457289 19.2381814,1.76241205 C18.6542711,1.17850179 18.0685806,0.819491933 17.3778575,0.551272994 C16.7102772,0.291361723 15.9471587,0.113933708 14.8291842,0.0629009014 C13.7094295,0.0124614993 13.3521998,0 10.5002967,0 C7.64839357,0 7.29116392,0.0124614993 6.17140919,0.0629009014 Z" id="Fill-1" stroke-width="2"></path>
            <path d="M10.4989404,15 C8.01530492,15 6,12.9863401 6,10.5 C6,8.01365992 8.01530492,6 10.4989404,6 C12.9846951,6 15,8.01365992 15,10.5 C15,12.9863401 12.9846951,15 10.4989404,15 Z" id="Fill-6" stroke-width="2"></path>
            <path d="M16.4996468,6 C15.6717683,6 15,5.32878003 15,4.5 C15,3.67121997 15.6717683,3 16.4996468,3 C17.3282317,3 18,3.67121997 18,4.5 C18,5.32878003 17.3282317,6 16.4996468,6 Z" id="Fill-6" stroke-width="0.5" fill="#B5B5D5"></path>
        </g>
    </g>
</svg>