<?xml version="1.0" encoding="UTF-8"?>
<svg width="26px" height="22px" viewBox="0 0 26 22" version="1.1" xmlns="http://www.w3.org/2000/svg" xmlns:xlink="http://www.w3.org/1999/xlink">
    <!-- Generator: Sketch 51.1 (57501) - http://www.bohemiancoding.com/sketch -->
    <title>twitter_select</title>
    <desc>Created with Sketch.</desc>
    <defs></defs>
    <g id="twitter_select" stroke="none" stroke-width="1" fill="none" fill-rule="evenodd">
        <g id="twitter" transform="translate(0.000000, 1.000000)" fill="#B5B5D5">
            <path d="M22.89028,5.08160941 C22.9007687,5.30229645 22.9053575,5.52427406 22.9053575,5.74689694 C22.9053575,12.5520592 17.6426515,20.4 8.01926785,20.4 C5.06473174,20.4 2.31538086,19.5475802 0,18.0866578 C0.409714903,18.1344088 0.825985244,18.1582843 1.24815548,18.1582843 C3.69923391,18.1582843 5.95496028,17.3349023 7.74590606,15.9539951 C5.45543587,15.9114063 3.52420371,14.4227368 2.85817116,12.3771873 C3.17676547,12.4365534 3.50453739,12.4694629 3.84148693,12.4694629 C4.31937839,12.4694629 4.7815368,12.4062251 5.22075118,12.2881382 C2.8273606,11.8164358 1.02395948,9.73410514 1.02395948,7.24008351 C1.02395948,7.21749858 1.02395948,7.19491365 1.02527057,7.17361928 C1.72998021,7.56014424 2.53629913,7.7918011 3.39440603,7.81825773 C1.99023111,6.89550199 1.06591429,5.31778326 1.06591429,3.53163788 C1.06591429,2.58823306 1.32550965,1.70419434 1.77521273,0.943404821 C4.35477776,4.05883469 8.21068665,6.10890112 12.5582534,6.3237806 C12.4690995,5.9469349 12.4225558,5.55331182 12.4225558,5.14936421 C12.4225558,2.30624407 14.7654695,0 17.6551068,0 C19.1602355,0 20.5191779,0.626570507 21.4743053,1.6267603 C22.666084,1.39574872 23.7850973,0.966635035 24.7959459,0.376845701 C24.4052418,1.5790093 23.5759788,2.58823306 22.4956426,3.22577339 C23.5536903,3.10123363 24.5625723,2.82505219 25.5,2.41465174 C24.7998792,3.447751 23.9116173,4.35437464 22.89028,5.08160941 Z" id="Fill-1"></path>
        </g>
    </g>
</svg>