<?xml version="1.0" encoding="UTF-8"?>
<svg width="12px" height="12px" viewBox="0 0 12 12" version="1.1" xmlns="http://www.w3.org/2000/svg" xmlns:xlink="http://www.w3.org/1999/xlink">
    <!-- Generator: Sketch 51.1 (57501) - http://www.bohemiancoding.com/sketch -->
    <title>hukidasi</title>
    <desc>Created with Sketch.</desc>
    <defs>
        <polygon id="path-1" points="0 0 12 0 12 12 0 12"></polygon>
    </defs>
    <g id="Page-1" stroke="none" stroke-width="1" fill="none" fill-rule="evenodd">
        <g id="hukidasi">
            <mask id="mask-2" fill="white">
                <use xlink:href="#path-1"></use>
            </mask>
            <g id="Clip-2"></g>
            <path d="M5.63679689,10.8229467 C4.53866134,10.7430867 3.65079125,10.0004381 2.54943608,10.2922721 C2.30746982,10.3563573 2.06748485,10.4409004 1.82873819,10.5301267 C1.97436374,9.99230416 2.08705018,9.43476307 1.98377492,8.95437068 C1.78069166,8.0068959 1.19373152,7.24378926 1.1238907,6.22656022 C1.05157325,5.16866174 1.3715532,4.09153771 1.97114413,3.2202257 C4.72812315,-0.786823601 10.8679243,1.45739021 10.8855084,6.12205208 C10.7227941,8.83014402 8.41482722,11.0250615 5.63679689,10.8229467 M11.9999897,6.12205208 C11.9826533,1.50791891 6.87535708,-1.64063542 2.81468263,0.911680227 C1.02532102,2.03662167 -0.116155472,4.10583363 0.0094094191,6.22656022 C0.0406148949,6.75156576 0.151320035,7.28297982 0.306356764,7.78383017 C0.462384143,8.28985663 0.883410404,8.91789142 0.884153392,9.43353066 C0.884896379,10.0199101 0.595131247,10.7120301 0.465108431,11.2878108 C0.379169541,11.6688711 0.727383025,12.1219041 1.15063825,11.969825 C2.03578405,11.6523569 2.76366415,11.2101691 3.70750596,11.4852424 C5.07113572,11.8823241 6.32406034,12.1154956 7.72558247,11.6863713 C10.1826422,10.9338634 11.7892289,8.75225587 11.9881019,6.24800411 C11.9960271,6.20881356 12.0002373,6.16691171 11.9999897,6.12205208" id="Fill-1" fill="#9B9B9B" mask="url(#mask-2)"></path>
        </g>
    </g>
</svg>