<?xml version="1.0" encoding="UTF-8"?>
<svg width="14px" height="12px" viewBox="0 0 14 12" version="1.1" xmlns="http://www.w3.org/2000/svg" xmlns:xlink="http://www.w3.org/1999/xlink">
    <!-- Generator: Sketch 51.1 (57501) - http://www.bohemiancoding.com/sketch -->
    <title>Fill 1</title>
    <desc>Created with Sketch.</desc>
    <defs></defs>
    <g id="Page-1" stroke="none" stroke-width="1" fill="none" fill-rule="evenodd">
        <path d="M7.00232286,11.5421886 C6.79515846,11.5421886 6.58761149,11.4637607 6.42922541,11.3067136 L6.415644,11.2927496 L1.9320555,6.80437893 C1.29736347,6.12339531 0.969687925,5.24557682 1.00220681,4.32548379 C1.0345344,3.40519947 1.42361324,2.55263093 2.09713665,1.92482525 C3.41510775,0.696567996 5.47948281,0.696950571 6.79726262,1.92501653 L7.00213157,2.12682488 L7.20680923,1.92501653 C7.88052393,1.29721085 8.75949014,0.972213331 9.67843545,1.0018629 C10.5987198,1.03438178 11.4512883,1.42326933 12.079094,2.09698403 C13.3069687,3.41457256 13.3069687,5.47933019 12.079094,6.79711001 L7.57905477,11.3025053 C7.4206687,11.4622304 7.21140013,11.5421886 7.00232286,11.5421886" id="Fill-1" stroke="#E6ADA9" stroke-width="0.5" fill="#E6ADA9"></path>
    </g>
</svg>