<?xml version="1.0" encoding="UTF-8"?>
<svg width="21px" height="20px" viewBox="0 0 21 20" version="1.1" xmlns="http://www.w3.org/2000/svg" xmlns:xlink="http://www.w3.org/1999/xlink">
    <!-- Generator: Sketch 51.1 (57501) - http://www.bohemiancoding.com/sketch -->
    <title>heart</title>
    <desc>Created with Sketch.</desc>
    <defs></defs>
    <g id="Symbols" stroke="none" stroke-width="1" fill="none" fill-rule="evenodd">
        <g id="heart" transform="translate(0.000000, 1.000000)" fill="#9B9B9B" stroke="#979797" stroke-width="0.2">
            <path d="M6.01678748,0.984362422 C4.8124481,0.984362422 3.60680179,1.42153173 2.66711649,2.29685056 C1.70782717,3.19046645 1.15434077,4.4042811 1.10827135,5.71480884 C1.06187521,7.0246831 1.52877726,8.27443843 2.42239316,9.23372774 L10.0849453,16.9047749 C10.2489654,17.0674881 10.5087185,17.0661812 10.6675109,16.9060818 L18.3434591,9.22131187 C20.0797205,7.35729772 20.0797205,4.4180039 18.33137,2.54190062 C16.4882668,0.563529781 13.3807052,0.452113686 11.4000473,2.29227629 L10.3770449,3.30155582 L9.34881487,2.28737529 C8.4172979,1.4192446 7.21785952,0.984362422 6.01678748,0.984362422 M10.3773717,18.0068467 C10.0235194,18.0068467 9.66901362,17.872886 9.39847835,17.6046379 L9.37528027,17.5807863 L1.71697571,9.91431345 C0.632874232,8.75114248 0.0731798886,7.25176283 0.128724569,5.68017509 C0.183942517,4.10826062 0.848518287,2.65200978 1.99894665,1.57967071 C4.25013989,-0.518284563 7.77624693,-0.517631096 10.0271134,1.57999744 L10.3770449,1.9247012 L10.7266497,1.57999744 C11.8774048,0.507658367 13.3787448,-0.0474617089 14.9483722,0.0031819708 C16.5202866,0.0587266517 17.9765375,0.722975689 19.0488766,1.87373078 C21.1461784,4.12427056 21.1461784,7.65103107 19.0488766,9.90189758 L11.3624729,17.5974497 C11.0919376,17.8702722 10.7344913,18.0068467 10.3773717,18.0068467" id="Fill-1"></path>
        </g>
    </g>
</svg>