<?xml version="1.0" encoding="UTF-8"?>
<svg width="20px" height="20px" viewBox="0 0 20 20" version="1.1" xmlns="http://www.w3.org/2000/svg" xmlns:xlink="http://www.w3.org/1999/xlink">
    <!-- Generator: Sketch 51.1 (57501) - http://www.bohemiancoding.com/sketch -->
    <title>like_select</title>
    <desc>Created with Sketch.</desc>
    <defs></defs>
    <g id="like_select" stroke="none" stroke-width="1" fill="none" fill-rule="evenodd">
        <path d="M10.0034843,18.2 C9.69273769,18.2 9.38141723,18.0794812 9.14383812,17.8381497 L9.12346599,17.8166915 L2.39808326,10.9194894 C1.4460452,9.87303354 0.954531887,8.52410495 1.00331021,7.11021379 C1.0518016,5.69602869 1.63541986,4.38590127 2.64570497,3.42116306 C4.62266162,1.53372125 7.71922421,1.53430915 9.69589394,3.42145701 L10.0031974,3.73157243 L10.3102139,3.42145701 C11.3207859,2.45671881 12.6392352,1.9573007 14.0176532,2.00286268 C15.3980797,2.05283389 16.6769325,2.65043071 17.618641,3.6857165 C19.460453,5.71043216 19.460453,8.88330973 17.618641,10.9083193 L10.8685822,17.8316828 C10.631003,18.0771296 10.3171002,18.2 10.0034843,18.2" id="Fill-1" stroke="#B5B5D5" fill="#B5B5D5"></path>
    </g>
</svg>