<?xml version="1.0" encoding="UTF-8"?>
<svg width="20px" height="20px" viewBox="0 0 20 20" version="1.1" xmlns="http://www.w3.org/2000/svg" xmlns:xlink="http://www.w3.org/1999/xlink">
    <!-- Generator: Sketch 51.1 (57501) - http://www.bohemiancoding.com/sketch -->
    <title>osirase_select</title>
    <desc>Created with Sketch.</desc>
    <defs></defs>
    <g id="osirase_select" stroke="none" stroke-width="1" fill="none" fill-rule="evenodd">
        <path d="M18.0198976,15.2974501 L16.8441746,15.2974501 L16.8441746,8.85351542 C16.6068043,6.19022725 14.8702538,3.89949856 12.3520794,2.98154273 C12.1621191,1.84626054 11.1876519,1 10.0001602,1 C8.81266841,1 7.83788087,1.84626054 7.64792063,2.98154273 C5.13006652,3.89949856 3.39351599,6.19022725 3.18113211,8.85351542 L3.15614577,15.2974501 L1.98010242,15.2974501 C1.71494918,15.2974501 1.5,15.5123993 1.5,15.7775525 L1.5,15.7775525 C1.5,16.0427058 1.71494918,16.257655 1.98010242,16.257655 L6.7990258,16.257655 C7.03831804,17.8083858 8.38213458,19 10.0001602,19 C11.6181858,19 12.9620023,17.8083858 13.2012945,16.257655 L18.0198976,16.257655 C18.2850508,16.257655 18.5,16.0427058 18.5,15.7775525 L18.5,15.7775525 C18.5,15.5123993 18.2850508,15.2974501 18.0198976,15.2974501 Z" id="Fill-1" stroke="#B5B5D5" fill="#B5B5D5"></path>
    </g>
</svg>