<?xml version="1.0" encoding="UTF-8"?>
<svg width="17px" height="18px" viewBox="0 0 17 18" version="1.1" xmlns="http://www.w3.org/2000/svg" xmlns:xlink="http://www.w3.org/1999/xlink">
    <!-- Generator: Sketch 51.1 (57501) - http://www.bohemiancoding.com/sketch -->
    <title>suzu</title>
    <desc>Created with Sketch.</desc>
    <defs></defs>
    <g id="suzu" stroke="none" stroke-width="1" fill="none" fill-rule="evenodd">
        <path d="M8.50016017,17.0397952 C7.41389512,17.0397952 6.50445646,16.2757922 6.27733705,15.257655 L10.7229833,15.257655 C10.4958639,16.2757922 9.58642522,17.0397952 8.50016017,17.0397952 Z M2.61715879,14.282727 L2.61715879,8.64600448 L2.62068251,8.339059 C2.64887222,5.78491412 4.30405698,3.55691881 6.73926398,2.79483623 L7.06728975,2.69209431 L7.07625921,2.34866105 C7.09547947,1.56993492 7.72109895,0.960204844 8.50016017,0.960204844 C9.27890105,0.960204844 9.90452053,1.56993492 9.92374079,2.34866105 L9.93271025,2.69209431 L10.260736,2.79483623 C12.6962634,3.55691881 14.3514481,5.78523418 14.3796378,8.339059 L14.3831615,14.282727 L10.778722,14.282727 L10.778722,14.2974501 L6.2215983,14.2974501 L6.2215983,14.282727 L2.61715879,14.282727 Z M16.5198976,14.2974501 L15.3441746,14.2974501 L15.3441746,7.85351542 C15.1068043,5.19022725 13.3702538,2.89949856 10.8520794,1.98154273 C10.6621191,0.846260536 9.68765192,0 8.50016017,0 C7.31266841,0 6.33788087,0.846260536 6.14792063,1.98154273 C3.63006652,2.89949856 1.89351599,5.19022725 1.68113211,7.85351542 L1.65614577,14.2974501 L0.480102422,14.2974501 C0.214949176,14.2974501 9.09541656e-16,14.5123993 0,14.7775525 L0,14.7775525 C3.24719074e-17,15.0427058 0.214949176,15.257655 0.480102422,15.257655 L5.2990258,15.257655 C5.53831804,16.8083858 6.88213458,18 8.50016017,18 C10.1181858,18 11.4620023,16.8083858 11.7012945,15.257655 L16.5198976,15.257655 C16.7850508,15.257655 17,15.0427058 17,14.7775525 L17,14.7775525 C17,14.5123993 16.7850508,14.2974501 16.5198976,14.2974501 Z" id="Fill-1" fill="#9B9B9B"></path>
    </g>
</svg>