<?xml version="1.0" encoding="UTF-8"?>
<svg width="20px" height="20px" viewBox="0 0 20 20" version="1.1" xmlns="http://www.w3.org/2000/svg" xmlns:xlink="http://www.w3.org/1999/xlink">
    <!-- Generator: Sketch 51.1 (57501) - http://www.bohemiancoding.com/sketch -->
    <title>serch_select</title>
    <desc>Created with Sketch.</desc>
    <defs></defs>
    <g id="serch_select" stroke="none" stroke-width="1" fill="none" fill-rule="evenodd">
        <g id="SEARCH" transform="translate(2.000000, 2.000000)" fill="#B5B5D5" stroke="#B5B5D5" stroke-width="2">
            <path d="M7.11111111,0.888888889 C3.68021014,0.888888889 0.888888889,3.68014415 0.888888889,7.11096402 C0.888888889,10.5420781 3.68021014,13.3333333 7.11111111,13.3333333 C10.5420121,13.3333333 13.3333333,10.5420781 13.3333333,7.11096402 C13.3333333,3.68014415 10.5420121,0.888888889 7.11111111,0.888888889 M7.11111111,14.2222222 C3.19013573,14.2222222 0,11.0321525 0,7.11096389 C0,3.19006968 3.19013573,0 7.11111111,0 C11.0320865,0 14.2222222,3.19006968 14.2222222,7.11096389 C14.2222222,11.0321525 11.0320865,14.2222222 7.11111111,14.2222222" id="Fill-1"></path>
            <path d="M11.6830598,12.2961889 C12.8750854,13.4882283 14.0674,14.6802678 15.2594256,15.8723073 C15.6544556,16.2676309 16.2676625,15.6547059 15.8723434,15.2593823 C14.6803179,14.0673428 13.4882923,12.8753033 12.2959777,11.6829749 C11.9012366,11.2882292 11.2880297,11.9008652 11.6830598,12.2961889" id="Fill-3"></path>
        </g>
    </g>
</svg>