<?xml version="1.0" encoding="UTF-8"?>
<svg width="18px" height="18px" viewBox="0 0 18 18" version="1.1" xmlns="http://www.w3.org/2000/svg" xmlns:xlink="http://www.w3.org/1999/xlink">
    <!-- Generator: Sketch 51.1 (57501) - http://www.bohemiancoding.com/sketch -->
    <title>SEARCH</title>
    <desc>Created with Sketch.</desc>
    <defs></defs>
    <g id="Symbols" stroke="none" stroke-width="1" fill="none" fill-rule="evenodd">
        <g id="SEARCH" fill="#9B9B9B">
            <g>
                <path d="M8,1.06666667 C4.17699606,1.06666667 1.06666667,4.17692253 1.06666667,7.9998361 C1.06666667,11.8230775 4.17699606,14.9333333 8,14.9333333 C11.8230039,14.9333333 14.9333333,11.8230775 14.9333333,7.9998361 C14.9333333,4.17692253 11.8230039,1.06666667 8,1.06666667 M8,16 C3.58890269,16 0,12.4111716 0,7.99983437 C0,3.58882839 3.58890269,0 8,0 C12.4110973,0 16,3.58882839 16,7.99983437 C16,12.4111716 12.4110973,16 8,16" id="Fill-1"></path>
                <path d="M13.1434423,13.8332125 C14.4844711,15.1742569 15.825825,16.5153013 17.1668538,17.8563457 C17.6112626,18.3010848 18.3011203,17.6115441 17.8563864,17.1668051 C16.5153576,15.8257606 15.1743288,14.4847162 13.8329749,13.1433467 C13.3888912,12.6992578 12.6990335,13.3884734 13.1434423,13.8332125" id="Fill-3"></path>
            </g>
        </g>
    </g>
</svg>