<?xml version="1.0" encoding="UTF-8"?>
<svg width="84px" height="84px" viewBox="0 0 84 84" version="1.1" xmlns="http://www.w3.org/2000/svg" xmlns:xlink="http://www.w3.org/1999/xlink">
    <!-- Generator: Sketch 51.1 (57501) - http://www.bohemiancoding.com/sketch -->
    <title>illust_like</title>
    <desc>Created with Sketch.</desc>
    <defs></defs>
    <g id="illust_like" stroke="none" stroke-width="1" fill="none" fill-rule="evenodd">
        <g id="hukidasi" transform="translate(4.000000, 4.000000)" fill="#FFFFFF" stroke="#9B9B9B" stroke-width="3">
            <path d="M17.8263233,5.84994813 C6.49369979,13.0683224 -0.73565132,26.3457658 0.0595929876,39.9537614 C0.257227668,43.322547 0.958360223,46.7324538 1.94025951,49.9462436 C2.92843291,53.1932467 5.59493256,57.2231366 5.59963815,60.5318218 C5.60434373,64.2944231 4.15681117,70.0023794 3.33333333,73.6969723 C2.7890537,76.1421096 2.7890537,76.1421096 5.59963815,75.6491228 C11.4714507,74.6191853 17.5032063,71.9319185 23.4808711,73.6969723 C32.1171929,76.2449129 40.0523822,77.7410966 48.928689,74.9875493 C64.4900672,70.1589567 74.6651162,56.1603085 75.9246451,40.0913597 C75.9748381,39.839887 76.0015031,39.5710168 75.9999345,39.2831675 C75.8901375,9.67581301 43.5439282,-10.5274106 17.8263233,5.84994813 Z" id="Fill-1"></path>
        </g>
        <path d="M42.2176774,61.7980659 C41.4853697,61.7980659 40.7517096,61.5168698 40.1918289,60.9537917 L40.1438198,60.9037251 L24.2947333,44.811077 C22.0511534,42.3694716 20.8928495,39.2221326 21.0078009,35.9232221 C21.122076,32.6236257 22.4974351,29.5668181 24.8782804,27.3158775 C29.5371911,22.9120719 36.8345733,22.9134436 41.4928077,27.3165633 L42.2170012,28.0401289 L42.9405185,27.3165633 C45.32204,25.0656227 48.4291074,23.9003734 51.6774973,24.0066793 C54.9306206,24.1232728 57.9443745,25.517594 60.1636117,27.9331373 C64.5040395,32.657232 64.5040395,40.0602342 60.1636117,44.7850149 L44.2563734,60.9387031 C43.6964927,61.511383 42.9567469,61.7980659 42.2176774,61.7980659" id="Fill-1" stroke="#E6ADA9" stroke-width="0.5" fill="#E6ADA9"></path>
    </g>
</svg>